<svg width="286" height="286" viewBox="0 0 286 286" fill="none" xmlns="http://www.w3.org/2000/svg">
<mask id="mask0_799_809" style="mask-type:luminance" maskUnits="userSpaceOnUse" x="-7" y="-7" width="300" height="300">
<path d="M-6.14355 -6.1438H292.144V292.144H-6.14355V-6.1438Z" fill="white"/>
</mask>
<g mask="url(#mask0_799_809)">
<path d="M160.534 194.256C160.534 205.154 151.699 213.988 140.801 213.988C129.903 213.988 121.069 205.154 121.069 194.256C121.069 183.357 129.903 174.523 140.801 174.523C151.699 174.523 160.534 183.357 160.534 194.256Z" stroke="#14F4D2" stroke-width="2.64" stroke-miterlimit="10" stroke-linecap="round"/>
<path d="M159.417 75.9824C159.351 85.1009 151.906 92.4394 142.787 92.373C133.669 92.3067 126.331 84.8606 126.397 75.7421C126.463 66.6236 133.909 59.2862 143.027 59.3526C152.146 59.4189 159.484 66.8639 159.417 75.9824Z" stroke="#14F4D2" stroke-width="2.64" stroke-miterlimit="10"/>
<path d="M192.598 165.225C189.316 148.676 188.873 123.549 188.883 122.107C188.89 121.166 188.692 117.599 188.692 117.599C186.59 94.3511 167.103 75.874 143.354 75.474L143.354 75.4716C143.34 75.4715 143.327 75.4726 143.314 75.4725C143.3 75.4724 143.286 75.4711 143.272 75.471L143.272 75.4734C119.52 75.5277 99.7655 93.7192 97.3262 116.934C97.3262 116.934 97.0759 120.498 97.0691 121.439C97.0586 122.881 96.2507 147.999 92.7282 164.498C86.8913 191.84 74.7928 194.168 74.7928 194.168L142.446 194.661L210.099 195.153C210.099 195.153 209.9 195.032 209.543 194.78C206.997 192.973 196.41 184.447 192.598 165.225Z" stroke="#14F4D2" stroke-width="2.64" stroke-miterlimit="10" stroke-linecap="round"/>
<path d="M193.3 168.451L91.9785 167.714C85.9179 192.011 74.7924 194.169 74.7924 194.169L142.446 194.661L210.099 195.153C210.099 195.153 209.961 195.052 209.709 194.851C207.541 193.12 196.937 183.993 193.3 168.451Z" stroke="#14F4D2" stroke-width="2.64" stroke-miterlimit="10" stroke-linecap="round"/>
<path d="M197.434 57.2458C181.865 57.2458 169.244 69.8666 169.244 85.4352C169.244 94.6774 173.692 102.881 180.564 108.022L177.298 112.014C177.298 112.014 174.882 114.43 178.103 116.041C179.893 116.936 184.911 114.6 189.021 112.347C191.678 113.177 194.504 113.624 197.434 113.624C213.003 113.624 225.623 101.004 225.623 85.4352C225.623 69.8666 213.003 57.2458 197.434 57.2458Z" stroke="#14F4D2" stroke-width="2.64" stroke-miterlimit="10" stroke-linecap="round"/>
<g opacity="0.242838">
<path d="M70.7584 87.6536C64.0015 87.6536 58.524 82.1761 58.524 75.4192C58.524 82.1761 53.0465 87.6536 46.2896 87.6536C53.0465 87.6536 58.524 93.1312 58.524 99.8881C58.524 93.1312 64.0015 87.6536 70.7584 87.6536Z" stroke="#14F4D2" stroke-width="1.32" stroke-miterlimit="10"/>
</g>
</g>
</svg>
